<?xml version="1.0" standalone="no"?>
<!DOCTYPE svg PUBLIC "-//W3C//DTD SVG 20010904//EN"
 "http://www.w3.org/TR/2001/REC-SVG-20010904/DTD/svg10.dtd">
<svg version="1.0" xmlns="http://www.w3.org/2000/svg"
 width="192.000000pt" height="192.000000pt" viewBox="0 0 192.000000 192.000000"
 preserveAspectRatio="xMidYMid meet">

<g transform="translate(0.000000,192.000000) scale(0.100000,-0.100000)"
fill="#000000" stroke="none">
<path d="M782 1724 c-281 -61 -522 -295 -597 -579 -28 -105 -32 -315 -7 -315
4 0 35 23 70 51 60 50 62 53 62 99 0 123 71 294 166 399 233 256 627 286 896
67 62 -50 137 -145 164 -206 10 -23 25 -40 34 -40 20 0 112 30 123 40 12 10
-54 130 -110 201 -26 34 -77 86 -113 116 -79 66 -239 146 -337 167 -88 19
-263 19 -351 0z"/>
<path d="M477 956 c-196 -161 -361 -296 -365 -301 -4 -4 116 54 267 129 150
76 275 135 277 133 3 -2 0 -36 -6 -76 -7 -39 -10 -77 -8 -86 2 -10 64 21 223
114 171 101 221 125 223 112 1 -9 -8 -61 -21 -116 -14 -55 -23 -101 -22 -103
2 -2 133 68 292 156 399 220 443 245 440 248 -2 2 -81 -22 -177 -52 -268 -85
-341 -107 -347 -100 -3 3 -1 56 4 118 6 62 10 114 9 115 -1 1 -100 -54 -221
-122 -121 -68 -221 -122 -223 -120 -3 2 1 56 8 120 7 63 11 117 9 119 -2 2
-165 -127 -362 -288z"/>
<path d="M1674 1004 l-61 -34 -7 -75 c-23 -259 -186 -470 -434 -563 -89 -33
-263 -42 -366 -18 -156 37 -331 165 -406 299 -17 31 -36 57 -41 57 -18 0 -119
-55 -119 -65 0 -22 77 -139 128 -195 108 -120 248 -203 407 -241 118 -28 302
-23 410 11 314 99 525 351 565 676 11 84 6 185 -8 183 -4 0 -35 -16 -68 -35z"/>
</g>
</svg>
